:SAMPLES-PER-SECOND 30
:FRAME-RANGE 1-2091
:FULLY-SPECIFIED
:DEGREES
1242
root  16.9969 39.3752 -42.627 178.947 37.3176 -178.503
RightUpLeg  -0.694348 -3.68372 3.96392
RightLeg  19.3794 3.04673 1.09101
RightFoot  -15.9555 -0.274331 -4.13125
RightToes  5.38607e-012 1.2921e-014 -6.02303e-014
Spine  -5.47806 0.228463 9.07515
Spine1  8.18266 1.30266 -4.70104
HEad  19.6038 -15.765 -2.83547
LeftShoulder1  1.01306 -0.369898 -21.4375
LeftArm  0.315432 4.3762 -49.1394
LeftForeArm  34.8337 -0.422749 -13.1884
LeftHand  -0.0397765 4.97603 4.95441
RightShoulder  2.229 4.82524 21.1741
RightArm  -1.06561 35.9889 70.7793
RightForeArm  64.6077 4.27899 11.2445
RightHand  0.185186 -6.58891 -19.1236
LeftUpLeg  -24.8672 -0.549532 1.19772
LeftLeg  42.1249 6.90805 7.02673
LeftFoot  -1.51906 0.372377 -4.22736
LeftToes  -7.20997e-011 3.75522e-011 -2.80735e-011
1243
root  17.8517 39.3538 -43.6905 178.546 36.9642 -179.366
RightUpLeg  2.09209 -4.22152 3.05266
RightLeg  18.2352 3.13483 1.0715
RightFoot  -17.4012 -0.330328 -4.01705
RightToes  5.38607e-012 1.2921e-014 -6.02303e-014
Spine  -5.96099 0.5268 8.41257
Spine1  8.53084 1.53448 -5.00235
HEad  18.8715 -15.6478 -2.51464
LeftShoulder1  0.925812 0.0105486 -22.0043
LeftArm  -0.407899 7.39641 -48.6333
LeftForeArm  35.7736 1.43778 -13.29
LeftHand  -0.0292811 5.25225 4.87926
RightShoulder  2.2338 4.87213 21.0692
RightArm  6.77474 36.7711 73.157
RightForeArm  58.5158 8.99335 11.2089
RightHand  0.153118 -6.43241 -18.5034
LeftUpLeg  -24.1428 -2.59033 0.484346
LeftLeg  30.1068 10.3198 6.73982
LeftFoot  -0.085474 0.464846 -4.71176
LeftToes  -7.20997e-011 3.75522e-011 -2.80735e-011
1244
root  18.7009 39.2874 -44.7756 178.471 36.5639 179.969
RightUpLeg  4.69084 -4.55954 2.34699
RightLeg  17.0228 3.1092 1.00063
RightFoot  -18.5741 -0.394982 -4.26092
RightToes  5.38607e-012 1.2921e-014 -6.02303e-014
Spine  -6.74598 0.776545 7.74873
Spine1  9.1744 1.755 -5.29663
HEad  18.0195 -15.6478 -1.93985
LeftShoulder1  0.820274 0.408923 -22.2368
LeftArm  -1.67858 10.8561 -48.3483
LeftForeArm  37.0393 3.12214 -13.1101
LeftHand  -0.0148068 5.65824 4.68175
RightShoulder  2.2185 4.83006 21.0184
RightArm  16.4609 37.2919 75.0784
RightForeArm  50.8308 13.3359 9.93475
RightHand  0.127786 -6.29837 -18.0524
LeftUpLeg  -22.8725 -4.37364 -0.13032
LeftLeg  17.4135 14.9987 5.5152
LeftFoot  1.47567 0.459789 -4.1732
LeftToes  -7.20997e-011 3.75522e-011 -2.80735e-011
1245
root  19.5471 39.1581 -45.8957 178.72 36.287 179.644
RightUpLeg  7.17922 -4.53353 2.00672
RightLeg  15.8852 2.92981 0.83936
RightFoot  -19.7898 -0.451578 -4.30018
RightToes  5.38607e-012 1.2921e-014 -6.02303e-014
Spine  -7.64738 0.992604 7.22249
Spine1  9.93542 1.96529 -5.48177
HEad  17.1242 -15.4566 -1.38788
LeftShoulder1  0.687022 0.901941 -22.5159
LeftArm  -2.56452 14.5658 -47.8167
LeftForeArm  37.493 4.52087 -12.9699
LeftHand  -0.00281247 5.98099 4.76178
RightShoulder  2.20454 4.75848 21.0909
RightArm  25.5449 37.6097 76.2571
RightForeArm  43.5361 16.5496 8.25308
RightHand  0.151363 -6.46588 -17.8406
LeftUpLeg  -21.6117 -2.30953 -1.97402
LeftLeg  5.97051 15.2589 3.18281
LeftFoot  0.181442 0.407522 -4.05017
LeftToes  -7.20997e-011 3.75522e-011 -2.80735e-011
1246
root  20.3723 38.9848 -47.1033 178.857 36.155 179.268
RightUpLeg  9.49926 -4.56001 1.43717
RightLeg  15.4749 3.05177 0.775149
RightFoot  -20.9222 -0.450295 -3.68324
RightToes  5.38607e-012 1.2921e-014 -6.02303e-014
Spine  -8.43936 1.13515 6.90898
Spine1  10.5306 2.1976 -5.89596
HEad  16.4541 -15.1235 -0.572593
LeftShoulder1  0.548898 1.40955 -22.905
LeftArm  -3.55085 18.5083 -46.89
LeftForeArm  38.0789 5.87075 -12.7145
LeftHand  -0.0169946 5.79368 3.16304
RightShoulder  2.16733 4.60579 21.1494
RightArm  29.8959 37.4447 77.153
RightForeArm  40.8123 17.5063 7.70234
RightHand  0.142176 -6.40655 -17.8256
LeftUpLeg  -20.4622 -2.02966 -2.90894
LeftLeg  -2.32111 16.2767 0.429762
LeftFoot  -2.24749 0.4736 -5.78368
LeftToes  -7.20997e-011 3.75522e-011 -2.80735e-011
1247
root  21.2033 38.7663 -48.3771 179.218 35.9607 179.46
RightUpLeg  11.2149 -4.24984 1.40644
RightLeg  16.6814 3.08783 0.791735
RightFoot  -21.7797 -0.388714 -2.64172
RightToes  5.38607e-012 1.2921e-014 -6.02303e-014
Spine  -8.59108 1.17564 7.18275
Spine1  10.3049 2.26622 -6.23117
HEad  16.099 -14.9031 0.31166
LeftShoulder1  0.388025 1.97725 -23.1876
LeftArm  -4.44574 22.178 -45.8313
LeftForeArm  38.0764 7.5334 -12.4596
LeftHand  -0.0146894 5.96702 2.90937
RightShoulder  2.11238 4.37826 21.2478
RightArm  31.1456 36.7011 77.6126
RightForeArm  41.1312 17.0078 8.23535
RightHand  0.132049 -6.35054 -17.6582
LeftUpLeg  -20.4434 -3.67525 -3.92925
LeftLeg  -3.14142 17.4136 1.24257
LeftFoot  -5.33889 0.31899 -5.4716
LeftToes  -7.20997e-011 3.75522e-011 -2.80735e-011
